<?xml version="1.0" encoding="UTF-8" standalone="no"?>
<svg
   xmlns:dc="http://purl.org/dc/elements/1.1/"
   xmlns:cc="http://creativecommons.org/ns#"
   xmlns:rdf="http://www.w3.org/1999/02/22-rdf-syntax-ns#"
   xmlns:svg="http://www.w3.org/2000/svg"
   xmlns="http://www.w3.org/2000/svg"
   xmlns:sodipodi="http://sodipodi.sourceforge.net/DTD/sodipodi-0.dtd"
   xmlns:inkscape="http://www.inkscape.org/namespaces/inkscape"
   inkscape:version="1.0 (4035a4f, 2020-05-01)"
   sodipodi:docname="noun_cycad.svg"
   id="svg68"
   xml:space="preserve"
   enable-background="new 0 0 100 100"
   viewBox="0 0 100 125"
   y="0px"
   x="0px"
   version="1.1"><metadata
     id="metadata74"><rdf:RDF><cc:Work
         rdf:about=""><dc:format>image/svg+xml</dc:format><dc:type
           rdf:resource="http://purl.org/dc/dcmitype/StillImage" /><dc:title></dc:title></cc:Work></rdf:RDF></metadata><defs
     id="defs72" /><sodipodi:namedview
     inkscape:current-layer="svg68"
     inkscape:window-maximized="0"
     inkscape:window-y="343"
     inkscape:window-x="499"
     inkscape:cy="62.5"
     inkscape:cx="50"
     inkscape:zoom="5.88"
     showgrid="false"
     id="namedview70"
     inkscape:window-height="877"
     inkscape:window-width="728"
     inkscape:pageshadow="2"
     inkscape:pageopacity="0"
     guidetolerance="10"
     gridtolerance="10"
     objecttolerance="10"
     borderopacity="1"
     bordercolor="#666666"
     pagecolor="#ffffff" /><g
     id="g62"><path
       id="path10"
       d="M30.972,54.159c-5.644,4.659-6.524,12.322-6.89,19.163c-0.009,0.175,0.252,0.221,0.274,0.041   c0.757-6.314,1.419-13.764,6.575-18.236c2.482-2.152,5.772-3.442,9.084-3.271c3.054,0.158,5.664,1.367,8.156,3.068   c0.153,0.104,0.386-0.089,0.245-0.24C43.978,49.943,35.797,50.175,30.972,54.159z"
       fill="none" /><path
       id="path12"
       d="M50.263,37.945l-1.185-1.971c-0.234,1.878-0.038,3.745,0.58,5.554c0.105,0.309-0.346,0.534-0.518,0.251   c-0.384-0.634-0.767-1.268-1.151-1.902c-0.083,2.229,0.332,4.421,1.219,6.485c0.141,0.329-0.354,0.537-0.545,0.264   c-0.062-0.089-0.124-0.179-0.186-0.268c0.073,1.58-0.076,3.143-0.435,4.678c0.385-0.43,0.771-0.859,1.156-1.289   c0.153-0.171,0.343-0.082,0.435,0.071c0.104-0.078,0.241-0.091,0.351,0.043c0.078,0.094,0.155,0.188,0.232,0.282   c0.119-1.381,0.288-2.755,0.5-4.104c0.627-3.979,1.623-7.896,3.006-11.68c1.405-3.847,3.177-7.56,5.328-11.046   c2.031-3.291,4.332-6.643,7.2-9.263c0.127-0.116,0.304,0.041,0.199,0.179c-2.477,3.253-5.038,6.364-7.115,9.904   c-2.004,3.416-3.711,7.019-5.034,10.754c-1.249,3.524-2.201,7.155-2.795,10.847c0.206,0.403,0.412,0.806,0.618,1.209   c0.061-1.996,0.531-3.935,1.403-5.757c0.117-0.245,0.461-0.15,0.534,0.07c0.159,0.471,0.317,0.943,0.476,1.415   c0.292-1.933,1.014-3.757,2.161-5.373c0.146-0.205,0.444-0.179,0.527,0.069c0.132,0.394,0.266,0.787,0.399,1.18   c0.355-1.619,1.037-3.136,2.03-4.455c-0.32,0.043-0.586-0.374-0.256-0.572c1.579-0.944,2.831-2.242,3.707-3.837   c-0.623,0.066-1.246,0.131-1.87,0.197c-0.328,0.035-0.458-0.426-0.195-0.597c1.376-0.893,2.753-1.784,4.129-2.676   c-0.688-0.085-1.376-0.17-2.064-0.255c-0.323-0.04-0.32-0.527-0.032-0.617c1.741-0.546,3.146-1.694,4.027-3.264   c-0.842,0.015-1.684,0.03-2.526,0.043c-0.251,0.004-0.417-0.295-0.292-0.488c0.266-0.103,0.526-0.226,0.769-0.325   c0.593-0.241,1.203-0.486,1.775-0.773c0.607-0.305,1.251-0.717,1.573-1.324c0.357-0.413,0.657-0.877,0.878-1.39   c-0.722,0.205-1.444,0.41-2.166,0.615c-0.331,0.094-0.491-0.309-0.248-0.513c2.402-2.024,3.563-5.055,4.529-7.97   c-3.151,1.213-6.077,2.901-8.718,5.011c-0.198,0.158-0.53-0.071-0.453-0.312c0.113-0.351,0.226-0.701,0.34-1.052   c-1.655,1.419-2.775,3.352-3.205,5.51c-0.068,0.338-0.543,0.271-0.58-0.048c-0.076-0.667-0.154-1.334-0.231-2   c-0.947,1.509-1.51,3.212-1.644,5.002c-0.028,0.369-0.509,0.396-0.573,0.03c-0.084-0.485-0.169-0.97-0.253-1.455   c-0.929,1.719-1.351,3.621-1.237,5.597c0.018,0.31-0.431,0.39-0.531,0.1c-0.232-0.674-0.466-1.348-0.7-2.021   c-0.606,1.731-0.721,3.569-0.32,5.377c0.062,0.28-0.34,0.537-0.491,0.237c-0.273-0.544-0.55-1.086-0.826-1.629   c-0.393,1.75-0.344,3.517,0.179,5.262c0.11,0.366-0.395,0.512-0.549,0.182c-0.297-0.637-0.594-1.274-0.891-1.912   c-0.474,1.803-0.464,3.658,0.062,5.474C50.857,38.001,50.434,38.229,50.263,37.945z" /><path
       id="path14"
       d="M51.085,51.196c-0.051-0.269-0.094-0.538-0.132-0.808c-0.016,0.197-0.031,0.395-0.046,0.592   C50.967,51.052,51.026,51.124,51.085,51.196z" /><path
       id="path16"
       d="M47.882,45.501c-0.03-0.043-0.059-0.085-0.089-0.128c0.014,0.071,0.028,0.141,0.042,0.212   C47.85,45.557,47.866,45.529,47.882,45.501z" /><path
       id="path18"
       d="M33.865,17.429c-0.714-0.232-1.428-0.463-2.141-0.695c0.202,0.521,0.485,0.996,0.826,1.422   c0.299,0.618,0.928,1.054,1.523,1.381c0.561,0.308,1.162,0.576,1.745,0.838c0.239,0.108,0.495,0.24,0.756,0.353   c0.118,0.197-0.059,0.49-0.31,0.477c-0.841-0.045-1.682-0.09-2.523-0.137c0.822,1.602,2.184,2.8,3.903,3.411   c0.285,0.101,0.27,0.588-0.055,0.616c-0.691,0.059-1.381,0.119-2.072,0.178c1.342,0.943,2.686,1.884,4.027,2.828   c0.257,0.18,0.109,0.636-0.217,0.589c-0.62-0.089-1.241-0.178-1.861-0.267c0.816,1.627,2.02,2.971,3.562,3.972   c0.33,0.214,0.03,0.638-0.297,0.56c-0.423-0.101-0.847-0.201-1.271-0.301c1.348,1.567,2.217,3.449,2.574,5.47   c0.149-0.387,0.299-0.775,0.447-1.162c0.093-0.244,0.392-0.258,0.529-0.047c1.079,1.662,1.725,3.515,1.936,5.458   c0.178-0.465,0.356-0.929,0.534-1.394c0.083-0.216,0.43-0.297,0.537-0.048c0.418,0.975,0.721,1.979,0.914,3.001   c0.068-0.232,0.365-0.353,0.539-0.102c0.153,0.221,0.305,0.442,0.458,0.662c-0.464-1.742-0.623-3.542-0.475-5.363   c-0.391-1.745-0.85-3.474-1.384-5.18c-1.184-3.781-2.756-7.445-4.632-10.933c-1.945-3.615-4.388-6.818-6.743-10.161   c-0.1-0.142,0.083-0.293,0.205-0.172c2.769,2.725,4.944,6.16,6.852,9.524c2.021,3.564,3.654,7.34,4.915,11.236   c0.599,1.851,1.099,3.731,1.518,5.629c0.144,0.239,0.288,0.477,0.432,0.716c-0.276-1.547-0.273-3.124,0.021-4.697   c0.045-0.239,0.391-0.305,0.517-0.095c0.243,0.404,0.486,0.809,0.729,1.213c-0.146-1.114-0.114-2.234,0.091-3.339   c-0.038-0.483-0.108-0.966-0.215-1.446c-0.321,0.626-0.641,1.251-0.962,1.877c-0.166,0.324-0.665,0.159-0.542-0.202   c0.588-1.725,0.703-3.489,0.374-5.252c-0.296,0.532-0.592,1.064-0.885,1.597c-0.161,0.293-0.554,0.022-0.482-0.255   c0.468-1.792,0.421-3.633-0.12-5.385c-0.26,0.664-0.518,1.329-0.775,1.994c-0.111,0.286-0.556,0.19-0.527-0.12   c0.187-1.971-0.164-3.886-1.029-5.639c-0.103,0.481-0.205,0.963-0.307,1.444c-0.078,0.364-0.557,0.319-0.571-0.051   c-0.068-1.794-0.567-3.516-1.458-5.059c-0.102,0.663-0.204,1.327-0.305,1.991c-0.048,0.318-0.527,0.367-0.582,0.027   c-0.35-2.173-1.398-4.145-2.999-5.625c0.1,0.354,0.2,0.709,0.3,1.063c0.069,0.244-0.272,0.46-0.464,0.295   c-2.561-2.207-5.422-4.002-8.526-5.331c0.857,2.949,1.905,6.021,4.23,8.132C34.366,17.138,34.192,17.535,33.865,17.429z" /><path
       id="path20"
       d="M47.182,46.742c0.063-0.112,0.126-0.223,0.189-0.335c-0.097-0.496-0.193-0.993-0.29-1.489   C47.152,45.521,47.189,46.129,47.182,46.742z" /><path
       id="path22"
       d="M26.351,41.544c0.256,0.088,0.509,0.189,0.756,0.302c-0.011-0.029-0.016-0.062-0.026-0.091   C26.836,41.696,26.593,41.626,26.351,41.544z" /><path
       id="path24"
       d="M22.157,50.446c-0.08,0.584-0.05,1.092,0.114,1.615c0.681-0.837,1.368-1.67,2.023-2.527   c0.139-0.182,0.47-0.112,0.489,0.131c0.047,0.625,0.094,1.249,0.141,1.874c0.891-0.417,1.598-1.001,2.271-1.726   c0.041-0.067,0.082-0.135,0.129-0.201c0.169-0.237,0.562-0.009,0.44,0.256c-0.094,0.203-0.168,0.402-0.233,0.603   c0.311-0.049,0.622-0.085,0.933-0.106c0.372-0.264,0.743-0.528,1.115-0.792c0.062-0.044,0.128-0.057,0.192-0.052   c-0.049-0.05-0.102-0.094-0.15-0.146c-0.14-0.151,0.004-0.359,0.167-0.394c1.441-0.309,2.882-0.252,4.276,0.135   c-0.334-0.349-0.668-0.698-1.001-1.046c-0.136-0.142-0.001-0.375,0.169-0.398c1.335-0.174,2.632,0.062,3.786,0.671   c-0.078-0.118-0.156-0.236-0.234-0.354c-0.487-0.176-0.96-0.399-1.417-0.675c-0.08-0.048-0.127-0.135-0.141-0.227   c-2.018-0.544-4.1-0.847-6.191-0.899c-7.753-0.193-15.05,3.484-20.21,9.124c-0.157,0.171-0.437-0.034-0.29-0.223   c4.735-6.094,12.566-9.568,20.22-9.555c2.33,0.004,4.745,0.36,7.097,1.024c0.45-0.187,0.901-0.374,1.351-0.561   c-1.477-0.126-2.926-0.437-4.334-0.939c-0.276-0.098-0.3-0.459-0.054-0.606c0.331-0.198,0.661-0.398,0.993-0.596   c-1.401,0.15-2.812,0.023-4.193-0.393c-0.224-0.068-0.316-0.398-0.122-0.553c0.466-0.37,0.928-0.744,1.391-1.116   c-1.021,0.216-2.061,0.249-3.084,0.096c0.166,0.299,0.402,0.545,0.722,0.76c0.323,0.228-0.047,0.7-0.371,0.483   c-1.188-0.838-2.515-1.301-3.948-1.409c0.052,0.443,0.269,0.758,0.658,1.041c0.306,0.222,0.008,0.619-0.307,0.529   c-1.594-0.454-3.221-0.491-4.828-0.149c0.176,0.256,0.422,0.416,0.783,0.497c0.248,0.056,0.29,0.331,0.168,0.479   c-0.029,0.091-0.108,0.167-0.231,0.158c-1.633-0.111-3.22,0.071-4.747,0.592c0.22,0.042,0.44,0.083,0.66,0.125   c0.311,0.059,0.322,0.515-0.002,0.561c-1.379,0.198-2.659,0.632-3.851,1.305c0.193-0.003,0.386-0.007,0.58-0.01   c0.301-0.005,0.455,0.404,0.145,0.535c-1.191,0.506-2.241,1.209-3.15,2.106c0.201-0.023,0.402-0.046,0.603-0.07   c0.3-0.036,0.419,0.393,0.139,0.512c-1.26,0.532-2.316,1.347-3.162,2.387c0.354-0.135,0.708-0.269,1.062-0.404   C9,51.816,9.228,52.188,8.987,52.376c-2.202,1.719-2.688,4.535-2.993,7.165c1.09-0.814,2.554-1.169,3.725-1.856   c0.008-0.018,0.018-0.035,0.034-0.05c0.287-0.285,0.575-0.553,0.854-0.826c0.007-0.006,0.014-0.013,0.021-0.019   c0.456-0.418,1.051-0.913,1.373-1.492c0.148,0.018,0.288,0.188,0.234,0.36c-0.177,0.559-0.369,1.112-0.559,1.666   c1.19-0.79,2.067-1.918,2.552-3.291c0.116-0.329,0.603-0.169,0.569,0.157c-0.051,0.492-0.107,0.982-0.161,1.474   c0.743-1.05,1.485-2.1,2.225-3.152c0.189-0.27,0.663-0.003,0.503,0.293c-0.361,0.669-0.5,1.341-0.43,2.055   c0.979-1.006,1.768-2.16,2.337-3.453c0.141-0.321,0.61-0.118,0.498,0.21c-0.213,0.618-0.278,1.231-0.181,1.857   c0.878-0.906,1.627-1.979,2.038-3.172C21.731,49.998,22.199,50.141,22.157,50.446z" /><path
       id="path26"
       d="M30.876,50.468c-0.29-0.2-0.56-0.43-0.823-0.673c0.004,0.062-0.013,0.127-0.062,0.189c-0.097,0.121-0.175,0.245-0.246,0.37   C30.123,50.373,30.5,50.41,30.876,50.468z" /><path
       id="path28"
       d="M43.992,56.497c0.103,0.107,0.202,0.217,0.298,0.332c-0.03-0.163-0.06-0.327-0.09-0.49   C44.13,56.392,44.061,56.445,43.992,56.497z" /><path
       id="path30"
       d="M54.122,88.961c-0.128,0.247-0.518,0.08-0.427-0.196c0.231-0.696,0.306-1.375,0.217-2.084   c-0.545,0.594-1.013,1.232-1.377,1.99c-0.122,0.255-0.473,0.075-0.413-0.19c0.163-0.722,0.192-1.381,0.058-2.077   c-0.593,0.611-1.024,1.314-1.302,2.181c-0.071,0.22-0.402,0.266-0.452,0c-0.07-0.377-0.152-0.747-0.206-1.124   c-0.04-0.112-0.087-0.221-0.148-0.325c-0.151-0.26-0.407-0.471-0.575-0.725c-0.167,0.253-0.424,0.465-0.575,0.725   c-0.061,0.104-0.107,0.213-0.148,0.325c-0.054,0.377-0.136,0.747-0.206,1.124c-0.049,0.266-0.381,0.22-0.452,0   c-0.278-0.867-0.709-1.57-1.302-2.181c-0.134,0.697-0.105,1.355,0.058,2.077c0.06,0.265-0.291,0.445-0.413,0.19   c-0.364-0.758-0.832-1.396-1.377-1.99c-0.089,0.709-0.013,1.388,0.217,2.084c0.091,0.276-0.299,0.443-0.427,0.196   c-0.401-0.773-0.941-1.364-1.625-1.804c-0.041,1.515,0.689,2.728,1.947,3.45c1.362,0.782,2.844,0.52,4.303,0.6   c1.459-0.08,2.941,0.182,4.303-0.6c1.257-0.722,1.987-1.935,1.947-3.45C55.063,87.597,54.523,88.188,54.122,88.961z" /><path
       id="path32"
       d="M44.015,85.145c-0.168-0.189-0.336-0.379-0.505-0.568c0.098,1.001,0.408,1.893,0.816,2.833   c0.096,0.097,0.19,0.197,0.28,0.303c-0.039-0.515,0.006-1.032,0.137-1.564c0.044-0.181,0.233-0.205,0.352-0.101   c0.453,0.395,0.831,0.856,1.164,1.357c-0.011-0.509,0.057-1.017,0.199-1.536c0.04-0.147,0.215-0.249,0.342-0.152   c0.601,0.461,1.066,1.041,1.395,1.72c0.037-0.116,0.083-0.229,0.131-0.338c0.035-0.103,0.075-0.2,0.116-0.286   c0.239-0.498,0.569-0.891,0.99-1.212c0.097-0.074,0.252-0.045,0.329,0.046c0.265,0.31,0.543,0.694,0.739,1.113   c0.04,0.069,0.077,0.136,0.106,0.197c0.072,0.15,0.141,0.313,0.194,0.481c0.33-0.679,0.795-1.259,1.395-1.72   c0.127-0.097,0.302,0.005,0.342,0.152c0.142,0.52,0.21,1.027,0.199,1.536c0.333-0.501,0.712-0.962,1.164-1.357   c0.119-0.104,0.307-0.08,0.352,0.101c0.131,0.532,0.176,1.049,0.137,1.564c0.089-0.106,0.183-0.206,0.28-0.303   c0.408-0.94,0.718-1.833,0.816-2.833c-0.168,0.189-0.336,0.379-0.505,0.568c-0.146,0.164-0.407,0.083-0.463-0.133   c-0.136-0.527-0.272-1.054-0.407-1.58c-0.227,0.35-0.457,0.697-0.702,1.035c-0.092,0.127-0.321,0.092-0.382-0.054   c-0.184-0.439-0.375-0.875-0.565-1.312c-0.221,0.386-0.445,0.768-0.669,1.152c-0.101,0.172-0.371,0.208-0.463,0   c-0.159-0.357-0.318-0.714-0.477-1.07l-0.402,0.83c-0.122,0.252-0.414,0.145-0.497-0.071c-0.151-0.393-0.323-0.775-0.425-1.179   c-0.075,0.172-0.149,0.344-0.225,0.516c-0.083,0.221-0.176,0.44-0.262,0.663c-0.083,0.216-0.375,0.323-0.497,0.071l-0.402-0.83   c-0.159,0.357-0.318,0.713-0.477,1.07c-0.092,0.208-0.363,0.172-0.463,0c-0.224-0.383-0.448-0.766-0.669-1.152   c-0.19,0.436-0.38,0.872-0.565,1.312c-0.061,0.145-0.289,0.181-0.382,0.054c-0.245-0.337-0.475-0.685-0.702-1.035   c-0.135,0.527-0.271,1.054-0.407,1.58C44.422,85.228,44.161,85.31,44.015,85.145z" /><path
       id="path34"
       d="M44.262,83.593c0.079-0.316,0.158-0.632,0.239-0.948c0.07-0.27,0.381-0.287,0.515-0.073   c0.241,0.382,0.478,0.766,0.707,1.155c0.189-0.446,0.376-0.893,0.561-1.342c0.084-0.205,0.341-0.153,0.437,0   c0.233,0.37,0.457,0.748,0.679,1.125c0.167-0.375,0.333-0.749,0.499-1.124c0.088-0.198,0.374-0.185,0.465,0   c0.127,0.259,0.254,0.519,0.381,0.778c0.102-0.271,0.213-0.536,0.363-0.775c0.055-0.116,0.111-0.231,0.169-0.343   c0.082-0.159,0.292-0.186,0.409-0.057c0.23,0.254,0.419,0.543,0.522,0.885c0.023,0.076,0.043,0.161,0.06,0.249   c0.12-0.245,0.24-0.491,0.36-0.736c0.091-0.185,0.377-0.198,0.465,0c0.166,0.375,0.333,0.749,0.499,1.124   c0.223-0.378,0.446-0.755,0.68-1.125c0.096-0.153,0.353-0.205,0.437,0c0.184,0.449,0.372,0.895,0.561,1.342   c0.229-0.39,0.466-0.773,0.707-1.155c0.135-0.214,0.446-0.197,0.515,0.073c0.081,0.316,0.16,0.632,0.239,0.948   c0.054-1.113,0.106-2.127-0.133-3.227c-0.19,0.33-0.378,0.662-0.565,0.993c-0.093,0.164-0.36,0.2-0.444,0   c-0.24-0.575-0.474-1.153-0.709-1.73c-0.217,0.397-0.435,0.792-0.666,1.179c-0.125,0.209-0.384,0.158-0.46-0.066   c-0.153-0.45-0.302-0.901-0.452-1.352l-0.608,1.357c-0.104,0.234-0.423,0.156-0.483-0.069c-0.158-0.586-0.442-1.021-0.715-1.504   c-0.273,0.482-0.557,0.918-0.715,1.504c-0.061,0.225-0.379,0.302-0.483,0.069l-0.608-1.357c-0.15,0.451-0.299,0.902-0.452,1.352   c-0.076,0.223-0.336,0.274-0.46,0.066c-0.231-0.387-0.449-0.783-0.666-1.179c-0.235,0.577-0.469,1.155-0.709,1.73   c-0.084,0.2-0.351,0.164-0.444,0c-0.188-0.332-0.375-0.663-0.565-0.993C44.155,81.466,44.207,82.48,44.262,83.593z" /><path
       id="path36"
       d="M45.263,80.318c0.194-0.489,0.389-0.977,0.586-1.465c0.084-0.208,0.367-0.171,0.461,0c0.212,0.386,0.424,0.772,0.631,1.161   c0.153-0.477,0.306-0.953,0.461-1.429c0.07-0.213,0.371-0.309,0.48-0.068c0.201,0.447,0.403,0.895,0.604,1.342   c0.027-0.07,0.059-0.138,0.09-0.207c0.134-0.516,0.497-1.036,0.756-1.383c0.08-0.108,0.244-0.089,0.327,0   c0.318,0.339,0.561,0.718,0.736,1.163c0.039,0.1,0.095,0.232,0.138,0.371c0.193-0.429,0.386-0.857,0.579-1.286   c0.109-0.241,0.41-0.145,0.48,0.068c0.156,0.475,0.308,0.952,0.461,1.429c0.207-0.389,0.419-0.775,0.631-1.161   c0.094-0.171,0.377-0.208,0.461,0c0.197,0.488,0.392,0.976,0.586,1.465c0.076-0.83,0.243-1.655,0.406-2.473   c-0.216,0.161-0.432,0.321-0.647,0.482c-0.148,0.11-0.364-0.001-0.407-0.18c-0.161-0.671-0.322-1.342-0.482-2.013   c-0.383,0.382-0.671,0.83-0.887,1.366c-0.094,0.233-0.477,0.181-0.512-0.073c-0.061-0.446-0.122-0.891-0.183-1.337   c-0.321,0.388-0.513,0.855-0.576,1.403c-0.039,0.336-0.442,0.424-0.55,0.081c-0.125-0.393-0.302-0.801-0.396-1.216   c-0.094,0.415-0.271,0.823-0.396,1.216c-0.109,0.342-0.511,0.255-0.55-0.081c-0.063-0.549-0.256-1.016-0.576-1.403   c-0.061,0.446-0.122,0.891-0.183,1.337c-0.035,0.253-0.418,0.306-0.512,0.073c-0.216-0.536-0.504-0.984-0.887-1.366   c-0.161,0.671-0.321,1.342-0.482,2.013c-0.043,0.179-0.259,0.291-0.407,0.18c-0.216-0.161-0.431-0.321-0.647-0.482   C45.02,78.664,45.187,79.488,45.263,80.318z" /><path
       id="path38"
       d="M45.965,75.514c0.042-0.176,0.263-0.299,0.409-0.182c0.4,0.32,0.723,0.683,0.991,1.102   c0.047-0.344,0.094-0.688,0.141-1.033c0.025-0.182,0.277-0.295,0.411-0.182c0.418,0.351,0.721,0.755,0.923,1.227   c0.056-0.172,0.121-0.339,0.202-0.494c0.082-0.215,0.171-0.427,0.277-0.632c0.095-0.184,0.311-0.151,0.411,0   c0.181,0.271,0.39,0.612,0.453,0.947c0.005,0.027,0.011,0.056,0.017,0.085c0.201-0.43,0.487-0.806,0.876-1.133   c0.134-0.113,0.386,0.001,0.411,0.182c0.047,0.344,0.094,0.688,0.141,1.033c0.268-0.419,0.591-0.783,0.991-1.102   c0.146-0.117,0.367,0.006,0.409,0.182c0.09,0.379,0.18,0.757,0.27,1.136c0.193-0.813,0.487-1.618,0.756-2.404   c-0.345,0.137-0.649,0.348-0.928,0.664c-0.187,0.211-0.453,0.031-0.479-0.217c-0.072-0.662-0.27-1.251-0.575-1.804   c-0.27,0.432-0.541,0.864-0.812,1.295c-0.142,0.227-0.449,0.194-0.529-0.075l-0.345-1.16c-0.124,0.239-0.256,0.472-0.393,0.701   c-0.089,0.226-0.158,0.671-0.411,0.747c-0.27,0.081-0.398-0.272-0.479-0.477c-0.041-0.101-0.101-0.22-0.148-0.341   c-0.121-0.207-0.239-0.416-0.349-0.63l-0.345,1.16c-0.08,0.27-0.386,0.302-0.529,0.075c-0.271-0.431-0.542-0.863-0.812-1.295   c-0.305,0.552-0.503,1.142-0.575,1.804c-0.027,0.248-0.293,0.428-0.479,0.217c-0.279-0.316-0.583-0.527-0.928-0.664   c0.269,0.785,0.563,1.591,0.756,2.404C45.785,76.272,45.875,75.893,45.965,75.514z" /><path
       id="path40"
       d="M53.239,71.878c-0.143,0.109-0.343-0.004-0.387-0.172c-0.179-0.68-0.36-1.359-0.54-2.038   c-0.399,0.382-0.678,0.835-0.945,1.359c-0.1,0.196-0.346,0.131-0.408-0.058c-0.198-0.608-0.391-1.217-0.583-1.827   c-0.221,0.452-0.376,0.926-0.556,1.4c-0.055,0.147-0.107,0.295-0.162,0.443c-0.069,0.184-0.306,0.209-0.366,0   c-0.051-0.175-0.2-0.502-0.244-0.781c-0.131-0.36-0.261-0.717-0.43-1.061c-0.192,0.61-0.385,1.219-0.583,1.827   c-0.062,0.189-0.308,0.254-0.408,0.058c-0.267-0.524-0.545-0.977-0.945-1.359c-0.18,0.679-0.361,1.358-0.54,2.038   c-0.044,0.168-0.245,0.28-0.387,0.172c-0.316-0.24-0.632-0.481-0.947-0.721c0.191,0.999,0.618,1.849,1.122,2.725   c0.146-0.61,0.382-1.176,0.739-1.711c0.13-0.195,0.365-0.204,0.494,0c0.242,0.383,0.484,0.767,0.726,1.15   c0.123-0.415,0.247-0.83,0.37-1.246c0.074-0.249,0.404-0.327,0.529-0.075c0.254,0.511,0.501,1.014,0.709,1.539   c0.208-0.525,0.455-1.028,0.709-1.539c0.125-0.251,0.455-0.174,0.529,0.075c0.123,0.415,0.247,0.83,0.37,1.246   c0.242-0.383,0.484-0.767,0.726-1.15c0.129-0.204,0.364-0.195,0.494,0c0.357,0.535,0.592,1.1,0.739,1.711   c0.505-0.876,0.931-1.726,1.122-2.725C53.871,71.398,53.555,71.638,53.239,71.878z" /><path
       id="path42"
       d="M46.291,69.113c0.044-0.163,0.24-0.277,0.38-0.169c0.46,0.356,0.848,0.773,1.117,1.289   c0.177-0.591,0.354-1.183,0.536-1.772c0.07-0.227,0.319-0.249,0.442-0.063c0.322,0.489,0.609,1.04,0.731,1.626   c0.121-0.587,0.408-1.138,0.731-1.626c0.123-0.186,0.371-0.164,0.442,0.063c0.183,0.589,0.359,1.181,0.536,1.772   c0.27-0.515,0.658-0.933,1.117-1.289c0.14-0.108,0.336,0.006,0.38,0.169c0.175,0.652,0.351,1.303,0.527,1.955   c0.35-1.081,0.655-2.106,0.775-3.231c-0.197,0.197-0.394,0.395-0.59,0.592c-0.129,0.129-0.387,0.094-0.423-0.122   c-0.108-0.648-0.214-1.297-0.321-1.945c-0.367,0.472-0.734,0.943-1.1,1.415c-0.121,0.156-0.381,0.071-0.42-0.121   c-0.125-0.603-0.249-1.207-0.373-1.81c-0.403,0.654-0.737,1.348-1.127,2.013c-0.128,0.06-0.229,0.014-0.332-0.045   c-0.379-0.651-0.708-1.328-1.102-1.968c-0.124,0.603-0.248,1.207-0.373,1.81c-0.04,0.192-0.299,0.277-0.42,0.121   c-0.367-0.472-0.734-0.943-1.1-1.415c-0.106,0.649-0.212,1.297-0.321,1.945c-0.036,0.216-0.294,0.251-0.423,0.122   c-0.197-0.197-0.394-0.395-0.59-0.592c0.12,1.125,0.425,2.151,0.776,3.231C45.94,70.416,46.116,69.765,46.291,69.113z" /><path
       id="path44"
       d="M45.382,65.028c-0.313-0.403-0.661-0.699-1.067-0.915c0.474,1.087,0.993,2.195,1.316,3.334   c0.097-0.594,0.195-1.189,0.293-1.783c0.033-0.198,0.306-0.275,0.424-0.122c0.373,0.482,0.746,0.963,1.119,1.445   c0.129-0.622,0.258-1.244,0.389-1.865c0.053-0.253,0.335-0.236,0.454-0.065c0.489,0.703,0.95,1.469,1.186,2.319   c0.236-0.849,0.697-1.615,1.186-2.319c0.119-0.171,0.401-0.188,0.454,0.065c0.131,0.621,0.26,1.243,0.389,1.865   c0.373-0.482,0.746-0.963,1.119-1.445c0.118-0.152,0.391-0.076,0.424,0.122c0.098,0.594,0.196,1.188,0.293,1.783   c0.323-1.138,0.842-2.247,1.316-3.334c-0.406,0.216-0.754,0.512-1.067,0.915c-0.19,0.244-0.483-0.026-0.444-0.282   c0.077-0.493,0.153-0.985,0.229-1.478c-0.496,0.33-0.941,0.725-1.348,1.198c-0.171,0.198-0.433,0.031-0.452-0.204   c-0.042-0.52-0.085-1.039-0.127-1.559c-0.461,0.515-0.854,1.08-1.191,1.715c-0.122,0.23-0.4,0.152-0.478-0.068   c-0.103-0.289-0.212-0.575-0.305-0.865c-0.094,0.29-0.202,0.576-0.305,0.865c-0.078,0.22-0.356,0.299-0.478,0.068   c-0.337-0.634-0.73-1.199-1.191-1.715c-0.042,0.52-0.085,1.039-0.127,1.559c-0.019,0.235-0.281,0.403-0.452,0.204   c-0.406-0.473-0.851-0.868-1.348-1.198c0.076,0.493,0.153,0.985,0.229,1.478C45.866,65.002,45.572,65.272,45.382,65.028z" /><path
       id="path46"
       d="M44.66,61.716c-0.388-0.413-0.81-0.67-1.295-0.819c0.51,1.054,1.168,1.963,1.785,2.944   c-0.054-0.347-0.107-0.693-0.161-1.039c-0.039-0.252,0.17-0.447,0.389-0.326c0.571,0.313,1.078,0.695,1.54,1.156   c0.042-0.517,0.085-1.035,0.127-1.552c0.021-0.252,0.271-0.379,0.451-0.204c0.518,0.506,0.958,1.065,1.338,1.685   c0.093-0.477,0.341-0.971,0.496-1.39c0.072-0.194,0.372-0.255,0.418,0c0.082,0.453,0.329,0.959,0.38,1.44   c0.387-0.64,0.838-1.215,1.37-1.735c0.18-0.176,0.431-0.048,0.451,0.204c0.042,0.517,0.085,1.035,0.127,1.552   c0.462-0.46,0.969-0.843,1.54-1.156c0.219-0.12,0.428,0.074,0.389,0.326c-0.054,0.346-0.107,0.693-0.161,1.039   c0.617-0.981,1.274-1.891,1.785-2.944c-0.485,0.149-0.907,0.406-1.295,0.819c-0.201,0.214-0.468-0.01-0.432-0.274   c0.085-0.628,0.169-1.255,0.252-1.883c-0.479,0.394-0.959,0.788-1.44,1.18c-0.139,0.114-0.368-0.004-0.403-0.179   c-0.095-0.472-0.189-0.944-0.284-1.416c-0.37,0.496-0.659,1.037-0.872,1.652c-0.086,0.249-0.365,0.297-0.506,0.072   c-0.4-0.636-0.862-1.263-1.152-1.969c-0.289,0.707-0.752,1.333-1.152,1.969c-0.142,0.225-0.42,0.177-0.506-0.072   c-0.213-0.615-0.502-1.156-0.872-1.652c-0.095,0.472-0.189,0.944-0.284,1.416c-0.035,0.175-0.264,0.292-0.403,0.179   c-0.481-0.392-0.96-0.786-1.44-1.18c0.083,0.628,0.167,1.256,0.252,1.883C45.128,61.706,44.861,61.93,44.66,61.716z" /><path
       id="path48"
       d="M55.289,58.469c0.127-0.623,0.258-1.246,0.388-1.868c-0.482,0.41-0.883,0.897-1.217,1.486   c-0.157,0.276-0.521,0.091-0.465-0.214c0.113-0.612,0.222-1.225,0.332-1.838c-0.638,0.418-1.196,0.936-1.679,1.575   c-0.156,0.207-0.439,0.024-0.449-0.203c-0.024-0.545,0.007-1.069,0.087-1.593c-0.553,0.425-0.981,0.97-1.299,1.659   c-0.108,0.234-0.411,0.15-0.478-0.068c-0.179-0.588-0.357-1.176-0.536-1.764c-0.127,0.278-0.207,0.572-0.331,0.87   c-0.026,0.063-0.081,0.084-0.136,0.079c-0.003,0.001-0.006,0.001-0.01,0.001c-0.003-0.001-0.006,0-0.01-0.001   c-0.055,0.004-0.11-0.016-0.136-0.079c-0.125-0.298-0.204-0.592-0.331-0.87c-0.178,0.588-0.357,1.176-0.536,1.764   c-0.066,0.218-0.37,0.302-0.478,0.068c-0.318-0.689-0.746-1.234-1.299-1.659c0.08,0.524,0.111,1.048,0.087,1.593   c-0.01,0.227-0.292,0.41-0.449,0.203c-0.483-0.639-1.041-1.157-1.679-1.575c0.11,0.613,0.22,1.226,0.332,1.838   c0.056,0.305-0.308,0.49-0.465,0.214c-0.335-0.589-0.735-1.075-1.217-1.486c0.13,0.623,0.261,1.245,0.388,1.868   c0.048,0.233-0.165,0.408-0.358,0.3c-0.166-0.093-0.332-0.187-0.497-0.28c0.438,0.737,0.973,1.375,1.587,1.967   c-0.067-0.491-0.134-0.982-0.206-1.472c-0.032-0.219,0.18-0.498,0.391-0.328c0.541,0.435,1.081,0.872,1.62,1.309   c0.103-0.515,0.205-1.03,0.308-1.545c0.044-0.223,0.322-0.289,0.461-0.133c0.483,0.54,0.857,1.135,1.146,1.8   c0.015-0.026,0.031-0.051,0.046-0.077c0.158-0.45,0.456-0.868,0.687-1.261c0.12-0.205,0.321-0.717,0.634-0.623   c0.322,0.097,0.538,0.654,0.688,0.932c0.042,0.079,0.087,0.156,0.132,0.234c0.173,0.258,0.335,0.527,0.496,0.795   c0.29-0.665,0.663-1.259,1.146-1.8c0.139-0.156,0.417-0.09,0.461,0.133c0.103,0.515,0.205,1.03,0.308,1.545   c0.539-0.437,1.079-0.874,1.62-1.309c0.211-0.17,0.423,0.109,0.391,0.328c-0.072,0.49-0.138,0.981-0.206,1.472   c0.614-0.592,1.149-1.23,1.587-1.967c-0.166,0.093-0.331,0.188-0.497,0.28C55.454,58.877,55.242,58.703,55.289,58.469z" /><path
       id="path50"
       d="M55.885,58.051c0.149-0.08,0.298-0.16,0.447-0.24c-0.116-0.068-0.232-0.136-0.347-0.205   C55.951,57.754,55.919,57.902,55.885,58.051z" /><path
       id="path52"
       d="M73.814,51.491c-0.003-0.146-0.007-0.292-0.01-0.438c-0.073,0.117-0.151,0.229-0.233,0.336   C73.651,51.424,73.729,51.461,73.814,51.491z" /><path
       id="path54"
       d="M59.906,49.563c-0.038,0.021-0.077,0.04-0.115,0.061c-0.008,0.02-0.016,0.04-0.025,0.06   C59.811,49.641,59.859,49.603,59.906,49.563z" /><path
       id="path56"
       d="M73.337,41.083c-0.079-0.017-0.159-0.03-0.237-0.049c0.034,0.025,0.067,0.05,0.101,0.075   C73.246,41.099,73.291,41.091,73.337,41.083z" /><path
       id="path58"
       d="M69.575,31.389c0.249-0.767,0.5-1.533,0.747-2.301c-2.113,1.487-3.999,3.224-5.631,5.242   c-0.215,0.265-0.549-0.033-0.508-0.296c0.119-0.771,0.245-1.541,0.368-2.312c-1.659,1.048-2.809,2.684-3.225,4.629   c-0.071,0.329-0.559,0.24-0.569-0.077c-0.025-0.834-0.048-1.669-0.077-2.503c-1.463,1.672-2.409,3.69-2.686,5.92   c-0.039,0.313-0.453,0.398-0.562,0.076c-0.188-0.559-0.379-1.117-0.569-1.675c-1.142,1.786-1.793,3.797-1.886,5.933   c-0.014,0.333-0.465,0.388-0.57,0.077c-0.221-0.655-0.443-1.31-0.665-1.965c-0.793,1.909-1.142,3.94-1.035,6.019   c0.015,0.283-0.408,0.399-0.538,0.146c-0.253-0.495-0.507-0.988-0.762-1.482c-0.115,1.661,0.014,3.308,0.394,4.936   c0.114-0.754,0.237-1.506,0.369-2.258c0.046-0.259,0.463-0.287,0.564-0.056c0.166,0.382,0.332,0.763,0.499,1.145   c0.273-1.466,0.911-2.809,1.895-3.978c0.143-0.17,0.484-0.067,0.512,0.153c0.014,0.112,0.028,0.224,0.042,0.336   c2.288-3.295,5.099-6.238,8.217-8.635c3.505-2.694,7.477-4.817,11.697-6.15c4.063-1.284,8.591-2.125,12.866-1.716   c0.154,0.015,0.158,0.233,0,0.242c-4.343,0.261-8.542,0.7-12.695,2.094c-4.052,1.361-7.906,3.318-11.302,5.926   c-2.351,1.805-4.422,3.858-6.244,6.099c0.023,0.043,0.039,0.091,0.041,0.144c0.011,0.282,0.022,0.565,0.033,0.847   c1.029-1.706,2.557-3.033,4.448-3.774c0.265-0.104,0.493,0.083,0.443,0.363c-0.083,0.458-0.165,0.917-0.248,1.375   c0.755-0.861,1.722-1.497,2.849-1.866c0.236-0.077,0.422,0.181,0.367,0.391c-0.067,0.254-0.134,0.509-0.2,0.763   c1.303-1.007,2.807-1.682,4.451-1.973c0.182-0.032,0.397,0.098,0.376,0.306c-0.019,0.183-0.052,0.357-0.096,0.522   c0.586-0.341,1.211-0.599,1.865-0.789c-0.369-0.31-0.738-0.62-1.106-0.932c-0.179-0.152,0.061-0.464,0.251-0.326   c0.018,0.013,0.036,0.026,0.053,0.039c0.045-0.017,0.093-0.026,0.147-0.014c1.638,0.361,3.135,0.655,4.775,0.463   c-0.536-0.554-1.073-1.109-1.609-1.663c-0.222-0.229-0.003-0.698,0.331-0.57c1.784,0.684,3.664,0.955,5.557,0.783   c-0.578-0.629-1.156-1.257-1.734-1.886c-0.213-0.232-0.008-0.695,0.331-0.568c1.75,0.654,3.572,0.808,5.391,0.462   c-0.402-0.512-0.88-0.919-1.471-1.246c-0.347-0.192-0.098-0.67,0.255-0.606c1.174,0.215,2.328,0.194,3.479-0.048   c-0.728-0.575-1.544-0.903-2.471-1.147c-0.167-0.044-0.166-0.27-0.041-0.341c0.025-0.091,0.099-0.169,0.203-0.159   c1.083,0.105,2.089,0.167,3.156-0.134c0.948-0.268,1.844-0.646,2.744-1.044c1.362-0.602,2.732-1.169,4.21-1.286   c-1.486-1.404-3.488-2-5.48-2.397C87.252,28.2,84.683,27.545,82.641,29c-0.307,0.219-0.571-0.232-0.372-0.482l1.401-1.755   c-2.044,0.463-3.94,1.362-5.589,2.683c-0.3,0.241-0.729-0.163-0.432-0.432c0.572-0.517,0.956-1.114,1.17-1.811   c-1.26,0.758-2.519,1.519-3.813,2.219c-0.053,0.053-0.103,0.108-0.16,0.158c-0.255,0.226-0.609-0.123-0.375-0.375   c0.537-0.577,0.86-1.225,0.949-1.975c-2.229,0.811-4.073,2.341-5.288,4.393C69.959,31.916,69.466,31.724,69.575,31.389z" /><path
       id="path60"
       d="M89.756,50.751c-0.259-0.164-0.068-0.557,0.22-0.479c0.365,0.099,0.731,0.198,1.096,0.297   c-0.944-0.952-2.076-1.658-3.382-2.063c-0.291-0.09-0.214-0.53,0.088-0.523c0.202,0.005,0.405,0.007,0.607,0.01   c-0.993-0.803-2.107-1.399-3.343-1.785c-0.321-0.1-0.208-0.523,0.092-0.547c0.192-0.016,0.385-0.031,0.578-0.047   c-1.252-0.552-2.569-0.857-3.961-0.919c-0.327-0.014-0.361-0.469-0.058-0.558c0.215-0.063,0.43-0.126,0.645-0.189   c-1.57-0.368-3.168-0.393-4.782-0.121c-0.122,0.021-0.208-0.047-0.246-0.135c-0.135-0.135-0.121-0.413,0.12-0.493   c0.351-0.117,0.58-0.3,0.73-0.572c-1.633-0.182-3.249,0.016-4.79,0.625c-0.305,0.12-0.641-0.245-0.358-0.496   c0.359-0.319,0.544-0.654,0.552-1.1c-1.415,0.249-2.69,0.841-3.789,1.792c-0.301,0.248-0.716-0.185-0.417-0.444   c0.376-0.31,0.618-0.652,0.738-1.084c-1.69,0.379-3.198,1.169-4.474,2.366c-0.232,0.217-0.58-0.023-0.504-0.315   c0.098-0.374,0.196-0.748,0.293-1.122c-1.186,0.515-2.125,1.391-2.759,2.545c-0.183,0.333-0.614,0.062-0.556-0.256l0.39-2.169   c-1.847,0.871-3.322,2.335-4.16,4.224c-0.14,0.316-0.591,0.262-0.605-0.102c-0.016-0.426-0.033-0.851-0.05-1.277   c-0.89,0.966-1.476,2.118-1.747,3.433c-0.06,0.292-0.559,0.281-0.596-0.019c-0.067-0.538-0.134-1.076-0.201-1.614   c-0.857,1.218-1.338,2.627-1.421,4.135c-0.016,0.287-0.451,0.432-0.579,0.137c-0.182-0.419-0.364-0.838-0.546-1.257   c-0.185,0.993-0.379,1.984-0.606,2.97c-0.054,0.236-0.452,0.171-0.423-0.071c0.038-0.304,0.085-0.605,0.127-0.908   c-0.087,0.02-0.18,0.001-0.251-0.085c-0.407-0.49-0.814-0.98-1.22-1.469c0.113,0.817,0.218,1.634,0.315,2.453   c-0.01,0.037-0.023,0.072-0.04,0.106c-0.148,0.296-0.371-0.017-0.524-0.192c-0.143-0.902-0.27-1.807-0.396-2.712   c-0.156,0.855-0.313,1.71-0.484,2.563c-0.031,0.001-0.061,0.002-0.094,0.001c-0.125-0.004-0.192-0.147-0.237-0.241   c-0.072-0.151-0.091-0.317-0.111-0.484c0.092-0.54,0.187-1.08,0.284-1.619c-0.427,0.473-0.854,0.945-1.28,1.418   c-0.206,0.228-0.561-0.042-0.479-0.306c0.548-1.767,0.789-3.571,0.738-5.402c-0.275,0.483-0.549,0.965-0.822,1.449   c-0.14,0.248-0.557,0.115-0.531-0.168c0.193-2.073-0.071-4.116-0.785-6.057c-0.249,0.645-0.497,1.29-0.745,1.935   c-0.118,0.307-0.566,0.232-0.566-0.101c-0.004-2.138-0.571-4.174-1.639-6.006c-0.213,0.55-0.427,1.1-0.638,1.65   c-0.122,0.317-0.532,0.215-0.558-0.099c-0.184-2.24-1.046-4.295-2.438-6.026c-0.063,0.832-0.122,1.665-0.181,2.497   c-0.022,0.316-0.514,0.385-0.571,0.053c-0.335-1.961-1.416-3.643-3.03-4.759c0.091,0.775,0.184,1.55,0.271,2.325   c0.03,0.264-0.316,0.548-0.52,0.274c-1.547-2.084-3.359-3.898-5.409-5.471c0.215,0.777,0.434,1.553,0.651,2.33   c0.095,0.339-0.405,0.511-0.566,0.211c-1.129-2.101-2.908-3.706-5.102-4.608c0.058,0.753,0.354,1.415,0.866,2.013   c0.224,0.261-0.145,0.596-0.39,0.359c-0.055-0.053-0.103-0.11-0.154-0.165c-1.264-0.753-2.49-1.566-3.717-2.375   c0.184,0.705,0.544,1.317,1.094,1.858c0.286,0.281-0.159,0.667-0.45,0.414c-1.592-1.388-3.45-2.366-5.473-2.913l1.327,1.811   c0.189,0.258-0.094,0.697-0.391,0.466c-1.981-1.538-4.574-0.99-6.859-0.633C8.568,27.231,6.543,27.744,5,29.085   c1.472,0.177,2.818,0.801,4.153,1.459c0.883,0.435,1.762,0.85,2.698,1.156c1.054,0.345,2.062,0.324,3.148,0.265   c0.104-0.006,0.175,0.075,0.196,0.167c0.122,0.077,0.113,0.302-0.055,0.339c-0.936,0.205-1.765,0.499-2.516,1.043   c1.14,0.29,2.293,0.358,3.474,0.192c0.355-0.05,0.585,0.438,0.23,0.616c-0.604,0.302-1.098,0.689-1.521,1.184   c1.804,0.421,3.629,0.343,5.406-0.238c0.344-0.113,0.529,0.359,0.307,0.581c-0.604,0.604-1.208,1.208-1.811,1.812   c1.884,0.25,3.774,0.057,5.584-0.552c0.339-0.114,0.538,0.363,0.308,0.583c-0.559,0.532-1.118,1.063-1.677,1.595   c1.631,0.26,3.138,0.029,4.79-0.264c0.054-0.01,0.102,0.001,0.146,0.02c0.018-0.012,0.037-0.024,0.055-0.036   c0.196-0.13,0.422,0.192,0.238,0.336c-0.635,0.496-1.268,0.99-1.908,1.478c1.978,0.639,4.076,0.659,6.035-0.137   c0.323-0.131,0.692,0.283,0.378,0.534c-0.74,0.592-1.481,1.183-2.22,1.777c1.698,0.367,3.412,0.314,5.105-0.157   c0.38-0.106,0.55,0.436,0.233,0.623c-0.67,0.394-1.337,0.794-2.004,1.193c1.61,0.473,3.252,0.727,4.941,0.752   c0.313,0.005,0.451,0.495,0.141,0.621c-0.666,0.27-1.329,0.547-1.992,0.822c1.341,0.086,2.586,0.533,3.643,1.308   c-0.215-0.383-0.429-0.766-0.645-1.148c-0.116-0.205,0.148-0.386,0.326-0.319c1.546,0.576,2.836,1.597,3.788,2.9   c-0.037-0.172-0.075-0.343-0.113-0.515c-0.024-0.108,0.032-0.196,0.114-0.248c-2.269-4.013-5.164-7.639-8.79-10.671   c-3.285-2.747-7.055-4.862-11.047-6.389c-4.091-1.566-8.27-2.178-12.598-2.619c-0.157-0.016-0.145-0.233,0.01-0.242   c4.288-0.231,8.777,0.797,12.784,2.248c4.161,1.507,8.042,3.793,11.432,6.63c3.916,3.276,7.284,7.442,9.626,12.077   c0.876,0.938,1.557,2.033,1.874,3.306c0.031,0.124-0.147,0.144-0.199,0.052c-0.706-1.263-1.473-2.436-2.503-3.427   c0.097,0.436,0.195,0.873,0.289,1.31c0.067,0.309-0.396,0.398-0.516,0.134c-0.767-1.682-2.052-2.958-3.666-3.78   c0.342,0.609,0.685,1.218,1.028,1.826c0.145,0.258-0.254,0.441-0.426,0.243c-1.113-1.276-2.651-2.046-4.325-2.177   c0.374,0.564,0.748,1.129,1.122,1.694c0.151,0.228-0.121,0.522-0.349,0.342c-1.145-0.901-2.493-1.328-3.92-1.257   c0.446,0.464,0.891,0.929,1.337,1.393c0.186,0.193-0.086,0.466-0.3,0.381c-1.459-0.577-2.975-0.735-4.507-0.508   c0.646,0.63,1.38,1.118,2.23,1.463c0.275,0.112,0.092,0.5-0.18,0.414c-1.703-0.539-3.463-0.611-5.202-0.262   c0.517,0.599,1.165,1.014,1.953,1.214c0.291,0.074,0.237,0.497-0.07,0.467c-0.987-0.099-1.924-0.012-2.86,0.267   c0.437,0.461,0.994,0.693,1.66,0.718c0.225,0.008,0.241,0.348,0.063,0.425c-0.023,0.06-0.073,0.112-0.147,0.127   c-1.35,0.268-2.495,0.63-3.486,1.561c0.582,0.137,1.174,0.243,1.757,0.379c0.318,0.074,0.297,0.481-0.009,0.554   c-1.175,0.278-2.181,0.889-2.96,1.784c0.53,0.058,1.061,0.113,1.591,0.172c0.292,0.033,0.302,0.425,0.064,0.538   c-1.086,0.518-2.038,1.281-2.705,2.28c0.475-0.002,0.951,0.005,1.426,0.012c0.212,0.003,0.312,0.31,0.181,0.456   c-0.836,0.933-1.489,1.971-1.96,3.115c0.397-0.239,0.794-0.478,1.19-0.717c0.252-0.152,0.576,0.126,0.376,0.383   c-0.981,1.259-1.411,2.754-1.293,4.311c0.348-0.442,0.699-0.884,1.103-1.274c0.106-0.103,0.296,0.051,0.226,0.177   c-0.056,0.101-0.119,0.198-0.181,0.297c0,0.005,0.002,0.009,0.002,0.014c-0.208,2.94,0.137,5.83,1.325,8.513   c1.196-3.704,5.409-7.093,3.675-11.16c-0.123-0.288,0.306-0.543,0.482-0.275c0.42,0.638,0.822,1.287,1.223,1.937   c0.238-1.582,0.284-3.201,0.03-4.782c-0.051-0.316,0.399-0.407,0.524-0.136c0.354,0.765,0.839,1.379,1.496,1.863   c0.283-1.462,0.557-2.931,0.91-4.378c-0.03-0.205-0.05-0.411-0.049-0.618c0.001-0.253,0.249-0.34,0.402-0.224   c0.089,0.002,0.174,0.066,0.159,0.188c-0.005,0.04-0.012,0.08-0.017,0.12c0.27,1.038,0.569,1.943,1.168,2.8   c0.646-1.849,1.303-3.695,1.939-5.548c0.106-0.309,0.563-0.149,0.529,0.152c-0.099,0.886,0.125,1.669,0.65,2.35   c0.91-1.063,1.587-2.276,1.964-3.633c0.08-0.287,0.44-0.281,0.511,0.008c0.168,0.679,0.321,1.361,0.474,2.044   c0.882-0.991,1.764-1.982,2.646-2.973c0.185-0.208,0.601-0.002,0.442,0.264c-0.204,0.344-0.328,0.688-0.368,1.044   c0.156,0.114,0.307,0.233,0.448,0.36c0.149-0.112,0.298-0.224,0.447-0.336c-0.017-0.092-0.034-0.184-0.051-0.277   c-0.046-0.25,0.17-0.426,0.378-0.317c0.694,0.362,1.296,0.829,1.826,1.409c-0.022-0.455-0.081-0.903-0.188-1.357   c-0.059-0.251,0.182-0.438,0.385-0.323c0.71,0.402,1.278,0.959,1.707,1.665c0.176-0.569,0.351-1.138,0.526-1.707   c0.057-0.184,0.295-0.293,0.428-0.123c0.143,0.182,0.275,0.376,0.375,0.582c0.1-0.206,0.232-0.401,0.375-0.582   c0.134-0.17,0.372-0.061,0.428,0.123c0.175,0.569,0.351,1.138,0.526,1.707c0.428-0.706,0.997-1.264,1.707-1.665   c0.203-0.115,0.444,0.072,0.385,0.323c-0.106,0.453-0.165,0.902-0.188,1.357c0.439-0.48,0.932-0.879,1.481-1.209   c4.196-3.692,11.085-3.924,15.731-0.939c6.158,3.956,7.941,11.46,9.117,18.209c0.03,0.173-0.224,0.249-0.267,0.073   c-1.501-6.179-3.044-13.498-8.694-17.326c-2.72-1.842-6.139-2.732-9.408-2.169c-2.18,0.375-4.062,1.275-5.797,2.493   c-0.063,0.346-0.127,0.692-0.19,1.038c0.362-0.433,0.771-0.813,1.247-1.132c0.204-0.137,0.44,0.087,0.388,0.325   c-0.084,0.382-0.17,0.763-0.256,1.144c0.655,0.372,1.308,0.748,1.959,1.126c0.033-0.62-0.152-1.157-0.547-1.67   c-0.189-0.246,0.2-0.499,0.408-0.315c0.993,0.879,1.987,1.758,2.98,2.638c0.071-0.696,0.142-1.392,0.228-2.086   c0.036-0.295,0.394-0.344,0.507-0.069c0.536,1.303,1.352,2.427,2.382,3.374c0.44-0.738,0.57-1.542,0.366-2.41   c-0.069-0.295,0.366-0.508,0.508-0.214c0.852,1.764,1.723,3.519,2.584,5.278c0.493-0.922,0.683-1.856,0.827-2.919   c-0.01-0.039-0.021-0.078-0.031-0.117c-0.029-0.119,0.048-0.193,0.136-0.205c0.138-0.133,0.394-0.077,0.425,0.175   c0.026,0.206,0.03,0.413,0.025,0.62c0.522,1.395,0.968,2.821,1.423,4.239c0.595-0.559,1.003-1.225,1.264-2.027   c0.092-0.284,0.549-0.247,0.536,0.073c-0.064,1.6,0.173,3.202,0.598,4.745c0.321-0.693,0.643-1.385,0.984-2.069   c0.143-0.287,0.599-0.085,0.511,0.216c-1.238,4.244,3.347,7.109,4.974,10.645c0.861-2.805,0.86-5.716,0.305-8.61   c-0.001-0.005,0-0.009,0-0.014c-0.072-0.09-0.147-0.179-0.214-0.273c-0.085-0.117,0.086-0.292,0.203-0.203   c0.447,0.34,0.848,0.737,1.246,1.134c-0.067-1.56-0.672-2.994-1.796-4.127c-0.229-0.231,0.059-0.546,0.328-0.425   c0.422,0.19,0.845,0.38,1.267,0.571c-0.604-1.08-1.375-2.033-2.316-2.86c-0.148-0.13-0.085-0.446,0.125-0.474   c0.471-0.064,0.942-0.127,1.414-0.182c-0.782-0.913-1.818-1.557-2.957-1.942c-0.25-0.084-0.286-0.475,0-0.542   c0.519-0.122,1.039-0.24,1.559-0.36c-0.879-0.796-1.951-1.283-3.151-1.419c-0.313-0.035-0.382-0.438-0.074-0.549   c0.562-0.204,1.137-0.38,1.699-0.585c-1.095-0.807-2.274-1.031-3.646-1.136c-0.076-0.006-0.132-0.051-0.161-0.108   c-0.186-0.055-0.21-0.394,0.012-0.429c0.658-0.104,1.183-0.401,1.563-0.91c-0.963-0.165-1.903-0.141-2.871,0.075   c-0.302,0.067-0.405-0.347-0.125-0.455c0.758-0.292,1.353-0.782,1.795-1.437c-1.768-0.14-3.507,0.14-5.134,0.878   c-0.26,0.118-0.487-0.246-0.228-0.39c0.804-0.444,1.474-1.015,2.041-1.718c-1.549-0.043-3.035,0.294-4.415,1.04   c-0.202,0.109-0.505-0.129-0.343-0.343c0.387-0.514,0.775-1.028,1.162-1.542c-1.425,0.099-2.714,0.683-3.743,1.714   c-0.205,0.205-0.51-0.054-0.387-0.298c0.304-0.605,0.609-1.21,0.913-1.815c-1.646,0.329-3.082,1.276-4.036,2.675   c-0.148,0.217-0.566,0.083-0.452-0.191c0.268-0.645,0.536-1.29,0.804-1.935c-1.505,1.008-2.629,2.427-3.191,4.188   c-0.088,0.277-0.558,0.243-0.529-0.072c0.042-0.445,0.087-0.89,0.132-1.335c-0.905,1.106-1.527,2.362-2.078,3.7   c-0.04,0.098-0.22,0.099-0.204-0.028c0.228-1.809,1.187-3.363,2.439-4.657c0.152-0.157,0.48-0.049,0.457,0.189   c-0.017,0.175-0.034,0.35-0.051,0.524c0.791-1.407,1.951-2.574,3.417-3.33c0.169-0.087,0.453,0.061,0.362,0.278   c-0.019,0.044-0.037,0.089-0.055,0.133c2.925-1.459,6.106-2.394,9.196-2.706c7.615-0.768,15.751,1.916,21.064,7.514   c0.165,0.174-0.094,0.406-0.267,0.25c-5.692-5.104-13.316-8.044-21.011-7.086c-1.886,0.235-3.742,0.679-5.531,1.312   c0.182-0.002,0.259,0.229,0.188,0.37c-0.201,0.401-0.403,0.801-0.604,1.201c1.074-0.741,2.333-1.13,3.68-1.116   c0.172,0.002,0.333,0.217,0.215,0.375c-0.29,0.386-0.58,0.772-0.87,1.158c1.338-0.55,2.762-0.778,4.23-0.642   c0.166,0.015,0.334,0.205,0.213,0.371c-0.335,0.461-0.706,0.87-1.117,1.234c0.477-0.133,0.96-0.233,1.447-0.301   c-0.068-0.142-0.141-0.284-0.225-0.426c-0.148-0.251,0.221-0.517,0.412-0.298c0.053,0.061,0.102,0.124,0.149,0.187   c0.184,0.162,0.372,0.31,0.561,0.452c0.589-0.032,1.185-0.018,1.787,0.05c0.022,0.003,0.04,0.013,0.06,0.02   c-0.007-0.302-0.014-0.605-0.021-0.907c-0.006-0.244,0.317-0.346,0.473-0.179c0.737,0.788,1.503,1.549,2.262,2.315   c0.112-0.537,0.091-1.046-0.046-1.619c-0.072-0.3,0.38-0.489,0.513-0.197c0.526,1.147,1.377,2.141,2.341,2.956   c0.035-0.633-0.09-1.237-0.363-1.831c-0.145-0.314,0.302-0.563,0.475-0.258c0.694,1.231,1.593,2.301,2.667,3.206   c-0.001-0.717-0.205-1.372-0.631-2.002c-0.188-0.278,0.257-0.59,0.472-0.341c0.84,0.974,1.682,1.946,2.525,2.918   c-0.103-0.483-0.207-0.966-0.306-1.451c-0.066-0.321,0.403-0.528,0.551-0.212c0.618,1.319,1.603,2.355,2.864,3.023   c-0.243-0.533-0.489-1.064-0.721-1.603c-0.071-0.166,0.052-0.348,0.197-0.381c0.377,0.544,1.018,0.978,1.513,1.35   c0.007,0.005,0.015,0.011,0.023,0.017c0.304,0.244,0.617,0.482,0.931,0.738c0.017,0.014,0.029,0.03,0.039,0.047   c1.234,0.568,2.725,0.777,3.89,1.48C92.878,54.999,92.116,52.244,89.756,50.751z M48.17,54.925   c-2.492-1.701-5.103-2.911-8.156-3.068c-3.312-0.171-6.602,1.119-9.084,3.271c-5.156,4.471-5.818,11.922-6.575,18.236   c-0.021,0.18-0.283,0.134-0.274-0.041c0.366-6.841,1.246-14.504,6.89-19.163c4.826-3.984,13.006-4.215,17.443,0.526   C48.556,54.836,48.323,55.029,48.17,54.925z" /></g></svg>
