<?xml version="1.0" encoding="UTF-8"?>
<svg width="71px" height="67px" viewBox="0 0 71 67" version="1.1" xmlns="http://www.w3.org/2000/svg" xmlns:xlink="http://www.w3.org/1999/xlink">
    <!-- Generator: Sketch 51.3 (57544) - http://www.bohemiancoding.com/sketch -->
    <title>taxonomy-crustaceans</title>
    <desc>Created with Sketch.</desc>
    <defs></defs>
    <g id="Page-1" stroke="none" stroke-width="1" fill="none" fill-rule="evenodd">
        <g id="taxonomy-crustaceans" fill="#000000" fill-rule="nonzero">
            <path d="M64.8738661,20.9588381 C65.9138202,26.6043035 63.0363094,32.306207 63.0363094,32.306207 L57.4838008,23.8678878 C54.7083765,28.2708861 55.0810336,32.3833943 55.8852759,35.3845708 C56.5899216,38.0180701 57.6265559,39.7966988 57.1626019,40.1652061 C56.5608726,40.6440996 53.6642725,39.9494135 51.4698281,39.326935 C51.4557186,39.1443412 51.444099,38.9625775 51.4175399,38.7716841 C52.2632807,38.280341 52.7803529,37.6927213 52.6218284,37.3358336 C52.4848831,37.0270842 51.879004,36.9789459 51.1154303,37.1631995 C51.0897012,37.0511534 51.067292,36.9357874 51.0399029,36.8245712 C50.9062775,36.2991993 50.746093,35.7879369 50.5701391,35.2849743 C51.328733,34.8127206 51.7810674,34.2724092 51.6325025,33.9362708 C51.4872575,33.6076021 50.8108308,33.5752332 49.9775395,33.8034753 C49.7783464,33.3561208 49.5633838,32.9203858 49.3351417,32.4954404 C49.9451707,31.9625988 50.2671996,31.4214575 50.0879257,31.1276476 C49.9103119,30.8363276 49.2944731,30.8703565 48.5516487,31.1591865 C48.3499656,30.8421374 48.1433028,30.5300682 47.9283402,30.2279586 L49.2596143,29.2900909 C50.6556262,30.2661373 52.5819898,29.9963966 53.6377134,28.6360735 C54.7274658,27.2325918 54.4726646,25.2107815 53.069183,24.1210291 C51.6657013,23.0312767 49.643891,23.2860779 48.5541386,24.6895595 C47.8594525,25.5842687 47.7158675,26.7287992 48.0636255,27.7247649 L46.7182419,28.6717622 C46.4626107,28.3713126 46.2019997,28.0808226 45.9372388,27.7986323 C46.3555444,27.0665976 46.4899998,26.4208798 46.2144492,26.1992775 C45.9579881,25.9926146 45.4176767,26.2084071 44.8400166,26.6956004 C44.5520166,26.4258597 44.2615266,26.1685685 43.9702066,25.921237 C44.3295842,25.2448104 44.4283508,24.6646604 44.1702297,24.4563375 C43.9104487,24.2471848 43.3610076,24.471277 42.7750478,24.9717498 C42.450529,24.7310581 42.1285001,24.5061358 41.8081311,24.2944931 C42.0919813,23.5408791 42.1202004,22.9167406 41.8255605,22.7424466 C41.5325806,22.5689826 41.0055488,22.8885216 40.4868167,23.4910808 C40.1224592,23.2893978 39.7630816,23.1009943 39.4178135,22.9416398 C39.5846378,22.2635531 39.5447991,21.7307115 39.2642688,21.5921063 C38.9804186,21.4518411 38.5255943,21.7522907 38.0832195,22.3100315 C37.7520609,22.1307577 37.403473,21.9548038 37.0233461,21.7863196 C37.1727409,21.0144462 37.0963835,20.411887 36.7818244,20.2890512 C36.4672652,20.1662154 36.0033112,20.5579619 35.5916454,21.2260889 C35.2231381,21.0966134 34.8405213,20.9754375 34.444625,20.8609015 C34.4662042,20.120567 34.3026998,19.5761058 33.9856508,19.5022383 C33.6735815,19.4300308 33.2951146,19.8342269 32.9905151,20.4907342 C32.6054083,20.4060772 32.2120019,20.3305498 31.8102958,20.2633221 C31.8202554,19.5570164 31.659241,19.0407742 31.3521515,18.9693967 C31.0251428,18.8938693 30.6242666,19.3420538 30.3121974,20.0566592 C29.8656728,20.0101808 29.4125084,19.975322 28.9535342,19.9545727 L28.8746869,18.4398749 C29.8723126,18.0987567 30.6848545,17.2795749 30.9604051,16.1806928 C31.3919902,14.4568422 30.3445663,12.7097524 28.6207157,12.2773373 C26.8968651,11.8457522 25.1497753,12.8931761 24.7173602,14.6170267 C24.2990547,16.2877591 25.275931,17.9692811 26.9051648,18.465604 L26.9823522,19.9562327 C26.639574,19.9703422 26.2959658,19.9877716 25.9498678,20.0184805 C25.7199657,19.3553334 25.3946169,18.9278981 25.0833776,18.9644168 C24.7704784,19.0017656 24.5538559,19.4972585 24.4857982,20.2002442 C23.9778557,20.2807515 23.4690833,20.3836679 22.9611408,20.5056737 C22.6391119,19.8226073 22.2382357,19.4026417 21.9195267,19.483149 C21.5950079,19.5653161 21.4439531,20.1454661 21.4929214,20.9198294 C20.8521835,21.1281523 20.2155954,21.368844 19.5864771,21.6535242 C19.2818776,21.0758641 18.9249899,20.728936 18.63367,20.8028035 C18.2950416,20.8882905 18.1473067,21.5174088 18.2161943,22.3424004 C18.1406669,22.3847289 18.0634796,22.4179278 17.9879522,22.4619163 C17.8045285,22.5681526 17.6418541,22.6810287 17.4741999,22.7922449 C15.6291735,21.4501812 13.2878242,19.5951951 13.292804,18.8241517 C13.2969539,18.2315521 15.3353636,17.9493618 17.8427072,16.8778688 C20.7002987,15.6578108 24.1654293,13.4127382 25.9166689,8.51092718 L15.8507759,9.35085822 C15.8507759,9.35085822 18.5606325,3.56761757 23.6433773,0.90091949 C23.6433773,0.90091949 9.35624974,-4.6955776 7.16678521,14.3539258 C6.89040474,16.7583529 9.71811727,21.2924866 15.2913752,24.8563838 C15.3212541,24.8754731 15.3478132,24.8879227 15.3776922,24.907012 C14.7909024,25.8830584 14.5477208,26.9528915 14.5568505,28.0841425 C12.1134147,26.9238425 9.13547735,25.6763955 7.65895825,25.6996347 C4.90926303,25.7427932 0.896351351,35.0119137 0.896351351,35.0119137 C0.896351351,35.0119137 5.30349944,30.4512209 6.90534422,29.4552552 C8.11959237,28.7008112 12.7475128,30.9599934 14.9212079,32.1003741 C11.9872591,33.0648008 7.35767863,34.8525592 5.90107884,36.9407672 C4.75322841,38.5857705 4.13157983,49.4625456 4.13157983,49.4625456 C4.13157983,49.4625456 7.38838757,41.0814945 8.78937928,39.0206755 C9.43592699,38.0695283 14.2647005,36.7847326 17.1264419,36.0941964 C17.47171,36.801332 17.8219579,37.5009979 18.1605863,38.1882142 C15.6781418,39.2049292 12.8164005,40.5378632 11.8511437,41.6284456 C10.0285266,43.6876046 14.165104,52.902777 14.165104,52.902777 C14.165104,52.902777 13.7708676,46.5725852 14.1161357,44.7184291 C14.3178187,43.6353164 17.2086091,42.2642037 19.5806673,41.3089066 C20.0280219,42.4501173 20.3284715,43.5124807 20.3616704,44.4544982 C20.458777,47.1892539 22.2946738,49.0940383 24.2666858,50.3614046 L24.2226973,50.4510415 C24.4401498,50.5506381 24.667562,50.6494047 24.897464,50.7431914 C25.1157465,50.8668572 25.333199,50.9855431 25.5465017,51.0942693 L25.5896602,51.0046324 C27.8015339,51.772356 30.4358631,52.0420967 32.6469069,50.4311222 C33.4071607,49.8775313 34.4238757,49.4583957 35.5933054,49.1073178 C36.3054208,51.5623732 37.0084066,54.6755959 36.2813516,55.5022474 C35.0355646,56.9190086 29.8117246,60.5161046 29.8117246,60.5161046 C29.8117246,60.5161046 39.6145167,58.0826285 40.1091797,55.3777517 C40.3706207,53.946051 39.6551853,50.8768168 38.9239805,48.2980957 C39.6742747,48.1395712 40.4411683,47.9835366 41.2113817,47.8192022 C42.4347595,50.4983499 44.4001318,55.0822819 44.0507138,56.1770141 C43.2937799,58.5515623 38.7098479,66.2868957 38.7098479,66.2868957 C38.7098479,66.2868957 46.8834062,59.083574 47.469366,57.1655101 C48.2121904,54.7328639 46.7630603,49.9862575 45.7114866,47.0813577 C47.9507494,48.088113 52.5828197,50.3340155 52.7380244,51.7540966 C52.9438573,53.6298319 52.0757072,59.9118854 52.0757072,59.9118854 C52.0757072,59.9118854 56.8912012,51.0328515 55.2279386,48.8433869 C54.3365493,47.6698074 51.5246062,46.0995015 49.1060696,44.894383 C50.0024387,44.2030169 50.6938048,43.3506363 51.0988309,42.285783 C51.1278799,42.2965726 51.1502891,42.3073622 51.1801681,42.3181518 C57.4248728,44.5034665 62.7375197,43.9291263 64.4580504,42.227685 C78.0961403,28.7447997 64.8738661,20.9588381 64.8738661,20.9588381 Z"></path>
        </g>
    </g>
</svg>