<?xml version="1.0" encoding="UTF-8"?>
<svg width="34px" height="63px" viewBox="0 0 34 63" version="1.1" xmlns="http://www.w3.org/2000/svg" xmlns:xlink="http://www.w3.org/1999/xlink">
    <!-- Generator: Sketch 40.3 (33839) - http://www.bohemiancoding.com/sketch -->
    <title>taxonomy-corals</title>
    <desc>Created with Sketch.</desc>
    <defs></defs>
    <g id="Page-1" stroke="none" stroke-width="1" fill="none" fill-rule="evenodd">
        <path d="M7.43788658,14.6236333 C6.40322612,13.2092588 5.9503479,11.6985732 5.79483753,9.49218483 C5.72061706,8.43914136 4.80571598,7.645573 3.75134877,7.71970029 C2.69698155,7.79382757 1.90241563,8.70758001 1.9766361,9.76062345 C2.35202137,15.0866073 4.22121778,17.637494 8.92670421,21.2288581 C9.15945132,21.4063717 9.28425583,21.5015678 9.38956308,21.5820866 C12.8244293,24.2084147 14.1816675,25.8488807 14.9309811,29.066191 C14.9371551,29.0927002 14.9438537,29.1189511 14.9510634,29.1449353 L15.028385,44.747118 C14.0280101,43.6676217 12.7878517,42.5867947 11.2291143,41.3597385 C11.0022951,39.3718618 11.0924839,37.9379662 11.4371497,35.732216 C11.4894505,35.3992685 11.5174503,35.2207151 11.5417998,35.0620937 C11.5815319,34.8032643 11.6134475,34.5850494 11.6420284,34.3734661 C11.8824441,32.5936845 11.8790323,31.1667928 11.5350455,29.4476068 C11.327919,28.4124248 10.3197742,27.7409424 9.28329092,27.9478089 C8.24680768,28.1546753 7.57448116,29.1615544 7.78160762,30.1967364 C8.03406396,31.4584692 8.03648853,32.4724898 7.84874419,33.8623493 C7.82362614,34.0482966 7.79487526,34.2448742 7.75835718,34.4827663 C7.73510378,34.6342473 7.7082677,34.8053795 7.65527716,35.1427516 C7.48326717,36.2435602 7.36596614,37.1979314 7.31097566,38.1214052 C5.18560732,36.08791 4.27117367,34.3439569 3.80146699,31.5534968 C3.62623291,30.5124562 2.63918661,29.810403 1.59683738,29.9854171 C0.554488158,30.1604312 -0.148447549,31.1462383 0.0267865384,32.1872789 C0.883964113,37.2796479 2.93786328,39.7874417 8.10032897,43.7717393 C8.2034632,43.8716858 8.31754286,43.9598112 8.44023301,44.0343658 C12.4506748,47.1447895 13.9466056,48.8889461 14.817652,52.2263439 C14.8715594,52.4328891 14.9573007,52.622702 15.0682535,52.7919038 L15.1041173,60.0285976 C15.1023181,60.0353232 15.1005209,60.0420535 15.0987258,60.0487886 C15.0058893,60.3971046 15.015588,60.7485667 15.1092843,61.071228 L15.1094172,61.0980381 C15.1146487,62.1536744 15.9757278,63.0052011 17.0326911,62.9999761 C18.0896545,62.9947511 18.9422516,62.1347531 18.9370201,61.0791167 L18.9343915,60.5487199 C19.8612159,57.4642138 21.5066679,55.6164341 25.5467883,52.3558078 C25.6711912,52.2554271 25.6711912,52.2554271 25.7960617,52.1546804 C26.4865332,51.5975199 27.1223841,51.0687233 27.7079234,50.5590638 C27.9175541,50.4348983 28.1014419,50.2718961 28.2496256,50.079957 C31.7463183,46.9343063 33.2936907,44.4343551 33.974781,40.2611365 C34.1448242,39.2192376 33.4369837,38.2369375 32.3937752,38.0671078 C31.3505666,37.8972782 30.3670317,38.60423 30.1969884,39.6461289 C29.8802847,41.5866554 29.3211987,43.0506736 28.2588913,44.4983974 C28.0763606,43.578699 27.8294472,42.6990203 27.5181482,41.7930563 C27.4518111,41.5999973 27.3845109,41.4101369 27.297712,41.1695757 C27.2995169,41.1745777 27.1391556,40.7317057 27.096758,40.6132228 C26.9527225,40.210706 26.8610311,39.9341524 26.7881609,39.6751805 C26.5905867,38.973025 26.5451147,38.4174442 26.6533009,37.7268506 C26.8166878,36.6838898 26.1025895,35.7061181 25.0583178,35.5429363 C24.0140459,35.3797544 23.0350451,36.0929562 22.8716581,37.1359169 C22.6736127,38.4001161 22.7639177,39.5034692 23.1032582,40.7094454 C23.2048426,41.0704644 23.3211105,41.4211437 23.4923796,41.8997667 C23.5376425,42.0262569 23.7007613,42.4767442 23.6967435,42.4656091 C23.7774877,42.6893901 23.8387676,42.8622666 23.8977565,43.0339401 C24.4442493,44.6243817 24.7422277,46.0710964 24.8062105,48.0106369 C24.3692254,48.3828886 23.8982642,48.7714128 23.3905577,49.1810951 C23.26607,49.2815331 23.26607,49.2815331 23.1410424,49.3824179 C21.3905286,50.7951904 20.0066682,52.0078984 18.8979157,53.1885164 L18.8293497,39.3530595 C18.976244,39.1518421 19.0859471,38.9184573 19.1460263,38.6606339 C19.9341252,35.2785931 21.2752585,33.5766184 24.8237992,30.6170112 C24.951579,30.5104785 24.951579,30.5104785 25.0801514,30.4033207 C29.589393,26.6443371 31.406237,24.1822427 32.1215615,19.1693554 C32.2706927,18.1242664 31.5433103,17.1563114 30.4969075,17.0073674 C29.4505048,16.8584235 28.481333,17.5848926 28.3322018,18.6299817 C28.1386117,19.9866326 27.8521673,21.0847418 27.3951486,22.0776324 C27.2353298,21.5542567 27.0433158,21.0414642 26.8182487,20.516033 C26.7511647,20.3594218 26.4498118,19.6785198 26.3781302,19.508134 C25.9500977,18.4907094 25.8418904,17.8126862 26.0164381,16.5437519 C26.1602963,15.4979258 25.4280411,14.5336426 24.3809003,14.3899651 C23.3337597,14.2462875 22.3682643,14.9776233 22.2244061,16.0234494 C21.9511312,18.0101141 22.1681242,19.3697845 22.8493246,20.9889839 C22.9379008,21.199528 23.24609,21.8958766 23.2991135,22.0196628 C23.8472266,23.2992621 24.1205033,24.4083549 24.1685708,26.1329606 C23.7062738,26.5543687 23.1944737,26.995765 22.62744,27.4684543 C22.4993522,27.5752081 22.4993522,27.5752081 22.3703644,27.682748 C20.9068468,28.903373 19.7357656,29.978466 18.788215,31.052787 L18.7206961,17.4286071 C18.7202195,17.3324515 18.712642,17.2379894 18.6984624,17.145714 C18.7060504,17.096207 18.7117625,17.0460211 18.7155195,16.9952244 C18.8213135,15.5648188 19.2196029,14.4643171 20.1150654,12.8670523 C20.2909305,12.5533562 20.9771015,11.3745043 21.1188192,11.1249987 C22.7916787,8.17979154 23.6619127,5.70048991 23.9547337,2.06478044 C24.0394823,1.01252993 23.2540948,0.0908963301 22.2005216,0.00625416201 C21.1469483,-0.0783880062 20.2241561,0.70601353 20.1394076,1.75826402 C19.9577964,4.01317454 19.5278666,5.67892562 18.7323895,7.41604748 C18.6618813,7.25951341 18.5872661,7.10198426 18.5084592,6.9423779 C18.4669188,6.85824665 18.3311725,6.58660384 18.3101238,6.54415427 C17.7848581,5.48483465 17.6411556,4.8706641 17.7287283,3.3654973 C17.7900439,2.31162575 16.9843445,1.4076503 15.9291481,1.3464116 C14.8739518,1.28517292 13.96884,2.08986083 13.9075244,3.14373237 C13.778997,5.35281489 14.074656,6.61643364 14.8800495,8.2406955 C14.9052139,8.29144544 15.0389991,8.55916384 15.0755344,8.63315827 C15.6605164,9.81791288 15.8807136,10.7020617 15.8749324,12.6159316 C15.8747733,12.6686069 15.8767491,12.7207909 15.8807786,12.772402 C15.31646,14.0624774 15.0047807,15.2735076 14.8982699,16.7136057 C14.887346,16.8613033 14.8935311,17.0063183 14.9151502,17.1467112 C14.9001368,17.2447459 14.8925862,17.3452183 14.8930932,17.4475284 L14.912113,21.285405 C14.032404,20.3975381 12.9803334,19.5131172 11.7163256,18.5466461 C11.6205417,18.4734089 11.5091581,18.3884306 11.3222332,18.245862 C11.0368175,16.4447783 11.1017015,15.5435721 11.464817,13.8871754 C11.4816955,13.8102213 11.4816955,13.8102213 11.4988441,13.7319044 C11.9691561,11.5811206 12.0251981,10.1458087 11.5030873,7.61684071 C11.2896366,6.58294104 10.2774057,5.91761852 9.2422064,6.13080127 C8.20700707,6.34398401 7.54084819,7.35494405 7.75429892,8.38884372 C8.15831176,10.3457766 8.12285702,11.2538222 7.75933644,12.916238 C7.74271769,12.9921352 7.74271769,12.9921352 7.72573814,13.0695508 C7.60306893,13.6291215 7.50647708,14.1362297 7.43788658,14.6236333 Z" id="taxonomy-corals" fill="#080100"></path>
    </g>
</svg>