<?xml version="1.0" encoding="UTF-8"?>
<svg width="64px" height="50px" viewBox="0 0 64 50" version="1.1" xmlns="http://www.w3.org/2000/svg" xmlns:xlink="http://www.w3.org/1999/xlink">
    <!-- Generator: Sketch 40.3 (33839) - http://www.bohemiancoding.com/sketch -->
    <title>taxonomy-birds</title>
    <desc>Created with Sketch.</desc>
    <defs></defs>
    <g id="Page-1" stroke="none" stroke-width="1" fill="none" fill-rule="evenodd">
        <path d="M56.21632,2.08049217 C55.28576,-0.125807867 45.68384,-3.68810324 42.51136,10.5212904 L25.76064,23.1186347 L0.70272,38.1629313 L1.95776,38.5986724 L5.28704,37.624512 L0,40.7555585 L1.73376,41.35751 L19.66912,36.0131044 C19.66912,36.0131044 27.76064,37.1213883 34.06528,37.1258805 C33.76832,37.7220564 33.47136,38.3175905 33.17376,38.9137664 C32.8736,39.5163597 35.41184,45.5429344 36.34944,48.4127929 C34.76864,48.6534452 33.1872,48.8947392 31.6064,49.1353915 C31.04128,49.2213846 31.28256,50.0793901 31.84256,49.9940388 C33.50784,49.7405517 35.17248,49.4870647 36.83712,49.2335776 C38.50176,49.4870647 40.16704,49.7405517 41.83104,49.9940388 C42.39104,50.0793901 42.63232,49.2213846 42.0672,49.1353915 C40.47296,48.8921723 38.87808,48.6495948 37.2832,48.4063755 C37.21088,48.1593059 37.13792,47.9122362 37.06496,47.6658083 C36.78208,46.7044827 36.4992,45.7437988 36.21568,44.7824732 C35.6864,42.9868864 35.1584,41.1912995 34.62912,39.3957127 C34.62528,39.3828779 34.62144,39.3751771 34.61824,39.3642675 C34.81024,38.9779404 40.86272,36.2120436 40.86272,36.2120436 C40.86272,36.2120436 40.86016,36.2120436 40.85952,36.2114018 C62.848,28.2750108 50.73664,10.0810572 55.37088,7.25547864 C57.31968,6.06761902 64,4.28615047 64,4.28615047 C64,2.25889572 56.21632,2.08049217 56.21632,2.08049217 L56.21632,2.08049217 Z" id="taxonomy-birds" fill="#080100" transform="translate(32.000000, 25.000000) scale(-1, 1) translate(-32.000000, -25.000000) "></path>
    </g>
</svg>