<?xml version="1.0" encoding="UTF-8"?>
<svg width="89px" height="28px" viewBox="0 0 89 28" version="1.1" xmlns="http://www.w3.org/2000/svg" xmlns:xlink="http://www.w3.org/1999/xlink">
    <!-- Generator: Sketch 51.3 (57544) - http://www.bohemiancoding.com/sketch -->
    <title>taxonomy-sharks</title>
    <desc>Created with Sketch.</desc>
    <defs></defs>
    <g id="Page-1" stroke="none" stroke-width="1" fill="none" fill-rule="evenodd">
        <g id="taxonomy-sharks" fill="#0A0B0C">
            <path d="M1.49027256,9.16682785 C8.26101509,10.3613985 16.5235871,14.0635091 20.3559562,15.4754535 C21.8215423,15.0058366 23.4246225,14.5649466 25.1454359,14.1517813 C27.074975,13.6884734 26.1024546,11.7751171 26.0346275,10.5566522 C25.9674641,9.35027686 26.3243606,9.51689962 27.4200041,9.97337321 C28.6382545,10.4809885 29.380122,11.4732278 30.5235973,11.9336182 C33.5353081,12.2779542 39.0322002,10.0628976 47.6474303,9.49233278 C49.0292157,9.40084719 50.8951396,7.13101209 51.1169126,6.10178317 C51.4483813,4.56344978 51.3846204,2.56439621 51.273028,1.25711147 C51.1538264,-0.138925799 51.9996758,-0.234762388 53.314866,0.304353255 C55.305376,1.12021807 58.2863116,5.11712746 59.579011,7.34133698 C60.2505021,8.49666348 59.8819783,8.48548014 61.1181402,8.67628863 C72.9232849,10.4985417 82.1956952,14.7867399 85.9456318,16.3342486 C90.294764,18.6474829 88.8982623,18.6369689 86.3747022,19.8913954 C84.2113942,20.5158304 82.3334808,21.6867854 79.8523657,21.7925627 C77.0927629,21.9101937 74.3462644,22.2474094 71.5923271,22.2566328 C66.9837367,33.8037809 66.3366586,21.9173152 63.316676,22.0745221 C56.692811,22.4193385 49.9682092,21.206699 43.8118314,20.5211816 C39.8394568,23.1812882 39.0646606,21.8326648 36.0573769,19.1670145 C34.2012893,19.104638 33.4903806,18.7737787 31.7555572,19.1594147 C31.2113504,19.2803917 30.5513929,19.5727722 30.2008756,20.0193979 C29.4444026,20.9833427 28.5781326,21.8275501 27.6217314,22.5667008 C27.098793,22.9708798 25.9221357,23.4899218 26.5118593,21.7599665 C27.2423358,19.617275 25.0251442,18.7609234 22.9762537,18.8708608 C22.2902047,18.9076653 21.3192931,18.6889414 20.73926,19.2942072 C18.1219238,22.0253882 17.6948421,24.7354837 15.5437296,26.3134487 C15.5437296,26.3134487 10.5815944,29.6988422 13.8076457,23.5681187 C16.6103522,18.2420383 9.52314854,20.5025424 3.51095643,13.5879829 C2.35850006,12.2625429 2.91712226,12.5222288 0.899814551,10.6221119 C-0.312244696,9.48040591 -0.469541064,8.78690448 1.49024754,9.16685293 L1.49027256,9.16682785 Z"></path>
        </g>
    </g>
</svg>