<?xml version="1.0" encoding="UTF-8"?>
<svg width="40px" height="57px" viewBox="0 0 40 57" version="1.1" xmlns="http://www.w3.org/2000/svg" xmlns:xlink="http://www.w3.org/1999/xlink">
    <!-- Generator: Sketch 40.3 (33839) - http://www.bohemiancoding.com/sketch -->
    <title>taxonomy-conifers</title>
    <desc>Created with Sketch.</desc>
    <defs></defs>
    <g id="Page-1" stroke="none" stroke-width="1" fill="none" fill-rule="evenodd">
        <g id="taxonomy-conifers" fill="#080100">
            <path d="M23.071875,40.7117802 L39.945625,34.671033 C39.0875,43.1934725 35.884375,48.4612747 32.191875,51.7008791" id="Shape"></path>
            <path d="M30.180625,53.2630549 C30.180625,53.2630549 26.136875,56.2583736 22.57625,56.3548352 C22.57625,56.3548352 2.4375,57.8618901 0.054375,34.1931099 L20.03,41.0324835" id="Shape"></path>
            <path d="M21.094375,38.7098901 L37.40375,32.8620659 C37.40375,32.8620659 38.18625,25.8178681 35.961875,19.9794396 L12.299375,35.692022 L21.094375,38.7098901 L21.094375,38.7098901 Z" id="Shape"></path>
            <path d="M21.250625,26.6803846 L5.959375,19.1081538 C5.959375,19.1081538 7.235625,11.9869121 11.143125,7.11623077 L26.6225,23.121956 L21.250625,26.6803846 L21.250625,26.6803846 Z" id="Shape"></path>
            <path d="M28.768125,21.6957033 L21.8075,14.4805055 L29.93,7.67307692 C33.464375,11.5177582 33.435625,16.9083297 33.42125,18.5945275 L28.768125,21.6957033 L28.768125,21.6957033 Z" id="Shape"></path>
            <path d="M14.335625,6.73915385 C14.335625,6.73915385 15.83,2.86628571 20.479375,0 C20.479375,0 24.67375,2.15034066 26.623125,7.10307692 L20.039375,12.6327033 L14.335625,6.73915385 L14.335625,6.73915385 Z" id="Shape"></path>
            <path d="M2.5825,32.3728681 C2.5825,32.3728681 1.721875,26.282011 3.409375,20.7160549 L3.409375,20.7160549 L18.7925,28.3077033 L9.220625,34.6616374 L2.5925,32.3741209" id="Shape"></path>
        </g>
    </g>
</svg>