<?xml version="1.0" encoding="UTF-8"?>
<svg width="88px" height="39px" viewBox="0 0 88 39" version="1.1" xmlns="http://www.w3.org/2000/svg" xmlns:xlink="http://www.w3.org/1999/xlink">
    <!-- Generator: Sketch 40.3 (33839) - http://www.bohemiancoding.com/sketch -->
    <title>taxonomy-mammals</title>
    <desc>Created with Sketch.</desc>
    <defs></defs>
    <g id="Page-1" stroke="none" stroke-width="1" fill="none" fill-rule="evenodd">
        <path d="M82.9491975,0 L80.9314555,1.55507143 C80.9314555,1.55507143 78.4462942,0.474428571 77.6362942,0.474428571 C76.8321007,0.474428571 64.9956491,0.131785714 61.3637136,2.0295 C57.7317781,3.92721429 52.2591975,3.28878571 49.0598426,2.30478571 C46.9521007,1.65757143 31.8437136,0.336785714 25.5930684,2.98421429 C19.3366168,5.62578571 17.4553265,9.83121429 15.4375846,14.104 C13.4227458,18.3767857 9.45403617,23.124 5.21532649,22.1048571 C0.982423265,21.0915714 3.06403617,18.5817857 1.78661681,18.5817857 C0.509197459,18.5817857 -0.300802541,19.8674286 0.105649072,21.2233571 C0.509197459,22.5792857 3.67081036,26.0408571 8.0401652,24.9514286 C12.40952,23.8707857 17.4553265,18.5115 19.2030684,15.9987857 C19.2030684,15.9987857 19.8069394,23.0156429 15.9746813,25.1564286 C12.1453265,27.2913571 10.7285523,34.6157143 10.7285523,34.6157143 L13.39952,38.4257857 L19.1682297,38.4257857 C19.1682297,38.4257857 18.6282297,36.0009286 17.6062942,35.2102143 C16.5814555,34.4195 14.6624233,34.2086429 14.6624233,34.2086429 C14.6624233,34.2086429 22.4285523,24.5414286 24.1443587,23.2206429 C25.8601652,21.8998571 27.6746813,20.6757143 27.6746813,20.6757143 C27.6746813,20.6757143 28.9840362,27.1917857 28.6821007,28.5125714 C28.3801652,29.8333571 28.2785523,31.5670714 28.7837136,31.9741429 C29.2888749,32.3812143 33.5914555,38.4257857 33.5914555,38.4257857 L39.3601652,38.4257857 C39.3601652,38.4257857 39.0698426,34.3140714 37.7575846,34.3140714 C36.4482297,34.3140714 34.3288749,32.3812143 33.7250039,31.5670714 C33.1182297,30.75 36.0417781,20.7782143 36.4482297,19.2524286 C36.4482297,19.2524286 47.3411329,24.0347857 54.9040362,23.4285714 L54.9040362,35.4298571 L56.6750039,38.4316429 L62.4408104,38.4316429 C62.4408104,38.4316429 62.3217781,36.0682857 61.7788749,35.5206429 C61.2417781,34.9759286 59.1950039,33.7635 59.1950039,33.7635 C59.1950039,33.7635 60.7221007,27.0365714 62.4379071,23.8795714 L72.6717781,33.0313571 L72.5846813,38.4316429 L78.3911329,38.4316429 C78.3911329,38.4316429 77.3024233,32.5862143 76.5940362,31.4704286 C75.8914555,30.3487857 70.5437136,23.0215 70.1401652,21.6040714 C69.7366168,20.1807857 70.9443587,16.4117143 71.9546813,16.0046429 C72.9679071,15.5975714 77.0991975,14.883 78.1066168,15.5975714 C79.1169394,16.3121429 81.7385523,18.2391429 82.9491975,16.2096429 C84.1598426,14.1742857 83.0508104,14.0717857 84.2585523,13.7672143 C85.4691975,13.4597143 87.2866168,12.6455714 87.083391,10.8152143 C86.8859717,8.98485714 85.1701652,7.35364286 84.8653265,6.23785714 C84.563391,5.11914286 82.9491975,0 82.9491975,0 L82.9491975,0 Z" id="taxonomy-mammals" fill="#080100"></path>
    </g>
</svg>